<svg width="40" height="40" viewBox="0 0 40 40" fill="none" xmlns="http://www.w3.org/2000/svg">
<path d="M20 4.44445C15.8744 4.44445 11.9178 6.08333 9.00056 9.00056C6.08333 11.9178 4.44444 15.8744 4.44444 20V22.2222H9.06667C10.5556 22.2222 11.2889 22.2222 11.8667 22.5111C12.3778 22.7778 12.7778 23.1778 13.0444 23.6889C13.3333 24.2444 13.3333 25 13.3333 26.4889V35.7333C13.3333 37.2222 13.3333 37.9556 13.0444 38.5333C12.7778 39.0444 12.3778 39.4444 11.8667 39.7111C11.3111 40 10.5556 40 9.06667 40H7.11111C4.62222 40 3.37778 40 2.44444 39.5111C1.6046 39.0896 0.919969 38.4127 0.488889 37.5778C0.0444445 36.6667 0 35.5333 0 33.3333V20C-3.9137e-08 17.3736 0.517315 14.7728 1.52241 12.3463C2.5275 9.91982 4.00069 7.71504 5.85786 5.85786C7.71504 4.00069 9.91982 2.5275 12.3463 1.52241C14.7728 0.517316 17.3736 0 20 0C22.6264 0 25.2272 0.517316 27.6537 1.52241C30.0802 2.5275 32.285 4.00069 34.1421 5.85786C35.9993 7.71504 37.4725 9.91982 38.4776 12.3463C39.4827 14.7728 40 17.3736 40 20V33.3333C40 35.5333 39.9778 36.6667 39.5111 37.5556C39.0896 38.3954 38.4127 39.08 37.5778 39.5111C36.6222 40 35.3778 40 32.8889 40H30.9333C29.4444 40 28.7111 40 28.1333 39.7111C27.6251 39.4543 27.2123 39.0416 26.9556 38.5333C26.6667 37.9778 26.6667 37.2222 26.6667 35.7333V26.4889C26.6667 25 26.6667 24.2667 26.9556 23.6889C27.2222 23.1778 27.6222 22.7778 28.1333 22.5111C28.6889 22.2222 29.4444 22.2222 30.9333 22.2222H35.5556V20C35.5556 15.8744 33.9167 11.9178 30.9994 9.00056C28.0822 6.08333 24.1256 4.44445 20 4.44445Z" fill="#E3EDEE"/>
</svg>
