<svg width="1440" height="896" viewBox="0 0 1440 896" fill="none" xmlns="http://www.w3.org/2000/svg">
<path fill-rule="evenodd" clip-rule="evenodd" d="M1117.68 172.683C1133.99 132.351 1110.74 87.8369 1065.63 73.1558C1110.84 87.8696 1160.89 67.0441 1177.41 26.6417C1161.1 66.9733 1184.35 111.488 1229.46 126.169C1184.25 111.455 1134.21 132.28 1117.68 172.683Z" fill="#919CB2" fill-opacity="0.25"/>
<path fill-rule="evenodd" clip-rule="evenodd" d="M363.925 358.518C358.383 337.658 335.001 324.702 311.62 329.566C335.053 324.691 349.611 303.763 344.136 282.821C349.679 303.681 373.061 316.637 396.442 311.773C373.008 316.648 358.451 337.577 363.925 358.518Z" fill="#919CB2" fill-opacity="0.25"/>
<path fill-rule="evenodd" clip-rule="evenodd" d="M1397.57 154.48C1392.03 133.62 1368.65 120.664 1345.27 125.528C1368.7 120.653 1383.26 99.7243 1377.78 78.7824C1383.32 99.6425 1406.71 112.599 1430.09 107.735C1406.65 112.61 1392.1 133.538 1397.57 154.48Z" fill="#919CB2" fill-opacity="0.25"/>
<path fill-rule="evenodd" clip-rule="evenodd" d="M953.179 230.266C947.637 209.406 924.255 196.45 900.874 201.313C924.307 196.439 938.865 175.51 933.39 154.568C938.933 175.428 962.315 188.384 985.696 183.52C962.262 188.395 947.705 209.324 953.179 230.266Z" fill="#919CB2" fill-opacity="0.25"/>
<path fill-rule="evenodd" clip-rule="evenodd" d="M574.802 308.691C572.332 276.609 541.291 252.323 505.354 254.408C541.371 252.319 568.666 224.531 566.319 192.343C568.788 224.425 599.83 248.711 635.766 246.626C599.749 248.715 572.455 276.503 574.802 308.691Z" fill="#919CB2" fill-opacity="0.25"/>
<path fill-rule="evenodd" clip-rule="evenodd" d="M73.6967 445.621C71.2267 413.539 40.1857 389.253 4.24931 391.338C40.2659 389.249 67.5607 361.461 65.214 329.273C67.6834 361.354 98.7249 385.64 134.661 383.556C98.6441 385.645 71.3499 413.433 73.6967 445.621Z" fill="#919CB2" fill-opacity="0.25"/>
<path fill-rule="evenodd" clip-rule="evenodd" d="M838.311 425.217C835.841 393.135 804.8 368.849 768.864 370.934C804.88 368.845 832.175 341.057 829.828 308.869C832.298 340.951 863.339 365.237 899.276 363.152C863.258 365.241 835.964 393.029 838.311 425.217Z" fill="#919CB2" fill-opacity="0.25"/>
<path fill-rule="evenodd" clip-rule="evenodd" d="M322.319 618.683C306.008 578.351 329.258 533.837 374.366 519.156C329.157 533.87 279.112 513.044 262.587 472.642C278.898 512.973 255.648 557.488 210.54 572.169C255.75 557.455 305.794 578.28 322.319 618.683Z" fill="#919CB2" fill-opacity="0.25"/>
<path fill-rule="evenodd" clip-rule="evenodd" d="M1076.07 804.518C1081.62 783.658 1105 770.702 1128.38 775.566C1104.95 770.691 1090.39 749.762 1095.86 728.821C1090.32 749.681 1066.94 762.637 1043.56 757.773C1066.99 762.648 1081.55 783.576 1076.07 804.518Z" fill="#919CB2" fill-opacity="0.25"/>
<path fill-rule="evenodd" clip-rule="evenodd" d="M42.4293 600.48C47.972 579.62 71.3539 566.664 94.7348 571.528C71.3018 566.653 56.7437 545.724 62.2184 524.782C56.676 545.642 33.2937 558.599 9.91281 553.735C33.3463 558.61 47.904 579.538 42.4293 600.48Z" fill="#919CB2" fill-opacity="0.25"/>
<path fill-rule="evenodd" clip-rule="evenodd" d="M486.821 676.266C492.363 655.406 515.745 642.45 539.126 647.313C515.693 642.439 501.135 621.51 506.61 600.568C501.067 621.428 477.685 634.384 454.304 629.52C477.738 634.395 492.295 655.324 486.821 676.266Z" fill="#919CB2" fill-opacity="0.25"/>
<path fill-rule="evenodd" clip-rule="evenodd" d="M865.198 754.691C867.668 722.609 898.709 698.323 934.646 700.408C898.629 698.319 871.334 670.531 873.681 638.343C871.212 670.425 840.17 694.711 804.234 692.626C840.251 694.715 867.545 722.503 865.198 754.691Z" fill="#919CB2" fill-opacity="0.25"/>
<path fill-rule="evenodd" clip-rule="evenodd" d="M1366.3 891.621C1368.77 859.539 1399.81 835.253 1435.75 837.338C1399.73 835.249 1372.44 807.461 1374.79 775.273C1372.32 807.354 1341.28 831.64 1305.34 829.556C1341.36 831.645 1368.65 859.433 1366.3 891.621Z" fill="#919CB2" fill-opacity="0.25"/>
<path fill-rule="evenodd" clip-rule="evenodd" d="M601.689 871.217C604.159 839.135 635.2 814.849 671.137 816.934C635.12 814.845 607.825 787.057 610.172 754.869C607.702 786.951 576.661 811.237 540.725 809.152C576.742 811.241 604.036 839.029 601.689 871.217Z" fill="#919CB2" fill-opacity="0.25"/>
</svg>
