<svg width="32" height="40" viewBox="0 0 32 40" fill="none" xmlns="http://www.w3.org/2000/svg">
<rect width="32" height="40" rx="5" fill="#FF102F"/>
<path d="M17.3888 28.7676V25.4305C17.3888 24.9777 17.7558 24.611 18.2083 24.611C19.823 24.611 20.7015 22.955 20.8234 19.686H18.2083C17.7559 19.686 17.3888 19.3187 17.3888 18.8664V11.82C17.3888 11.3674 17.7558 11.0007 18.2083 11.0007H25.1804C25.6328 11.0007 26 11.3678 26 11.82V18.8665C26 20.4334 25.8418 21.8713 25.5313 23.1412C25.2123 24.4431 24.7226 25.5812 24.0761 26.5244C23.4113 27.4936 22.5789 28.2542 21.6036 28.7839C20.6209 29.3169 19.4786 29.5875 18.208 29.5875C17.7559 29.5871 17.3888 29.2201 17.3888 28.7676ZM6.81936 24.6107C6.36691 24.6107 6 24.9777 6 25.4299V28.7677C6 29.2201 6.36691 29.5868 6.81936 29.5868C8.08933 29.5868 9.23223 29.3162 10.2143 28.7832C11.1901 28.2536 12.0224 27.4937 12.6872 26.5238C13.334 25.5806 13.8236 24.4424 14.1426 23.1399C14.4534 21.87 14.6112 20.432 14.6112 18.8658V11.8194C14.6112 11.3667 14.2439 11 13.7917 11H6.81936C6.36691 11 6 11.3671 6 11.8194V18.8658C6 19.3184 6.36691 19.6853 6.81936 19.6853H9.39769C9.27726 22.9546 8.4115 24.6107 6.81936 24.6107Z" fill="#E3EDEE"/>
</svg>
