<svg width="20" height="19" viewBox="0 0 20 19" fill="none" xmlns="http://www.w3.org/2000/svg">
<path d="M11.3888 17.7676V14.4305C11.3888 13.9777 11.7558 13.611 12.2083 13.611C13.823 13.611 14.7015 11.955 14.8234 8.68597H12.2083C11.7559 8.68597 11.3888 8.31871 11.3888 7.86644V0.820046C11.3888 0.367425 11.7558 0.00068753 12.2083 0.00068753H19.1804C19.6328 0.00068753 20 0.367826 20 0.820046V7.86649C20 9.43342 19.8418 10.8713 19.5313 12.1412C19.2123 13.4431 18.7226 14.5812 18.0761 15.5244C17.4113 16.4936 16.5789 17.2542 15.6036 17.7839C14.6209 18.3169 13.4786 18.5875 12.208 18.5875C11.7559 18.5871 11.3888 18.2201 11.3888 17.7676ZM0.819358 13.6107C0.366909 13.6107 0 13.9777 0 14.4299V17.7677C0 18.2201 0.366909 18.5868 0.819358 18.5868C2.08933 18.5868 3.23223 18.3163 4.2143 17.7832C5.19013 17.2536 6.02238 16.4937 6.68716 15.5238C7.33401 14.5806 7.82364 13.4424 8.14265 12.1399C8.45335 10.87 8.6112 9.43205 8.6112 7.86581V0.819358C8.6112 0.366738 8.24394 0 7.79167 0H0.819358C0.366909 0 0 0.367081 0 0.819358V7.86581C0 8.31837 0.366909 8.68534 0.819358 8.68534H3.39769C3.27726 11.9546 2.4115 13.6107 0.819358 13.6107Z" fill="#E3EDEE"/>
</svg>
