<svg width="40" height="40" viewBox="0 0 40 40" fill="none" xmlns="http://www.w3.org/2000/svg">
<path d="M36.5779 4.99742L36.0778 4.49849C33.2527 1.34943 29.0961 0.351576 29.0961 0.351576C24.1082 -1.13872 16.2951 2.17881 9.31335 8.97587C3.49413 14.4511 0 21.0862 0 26.0625C0 26.7299 0.168862 27.3908 0.168862 28.0517C0.500089 31.3692 2.66281 34.8552 4.48781 36.514C6.8194 38.8337 9.80694 40 13.1322 40C18.6202 40 25.1084 36.8445 31.0899 31.2072C40.4033 22.084 42.7284 11.302 36.5779 4.99742ZM9.9758 29.38C9.9758 27.2223 12.3009 22.7449 17.2888 17.7686C22.1143 12.9608 27.1022 11.6325 29.4273 11.1336C28.2648 14.2891 25.7708 18.0991 22.1143 21.7536C18.6202 25.0711 14.6325 27.7212 11.1383 29.0495C10.8071 29.218 10.307 29.218 9.9758 29.38ZM11.6384 11.302C17.1264 5.8268 22.9456 3.17018 26.6021 3.17018C27.7647 3.17018 28.7649 3.50712 29.4273 4.16804C30.0963 4.82895 30.4275 6.15726 30.2586 7.65404C28.2648 7.81603 21.4454 8.97587 14.9637 15.4489C10.8071 19.5959 6.48167 25.5635 6.8194 29.7105C5.81922 29.7105 4.81904 29.38 4.32545 28.8811C3.98772 28.5506 3.65649 28.0517 3.49413 27.3908C3.49413 27.3908 3.32527 26.5614 3.32527 26.0625C3.49413 21.9155 6.65053 16.1099 11.6384 11.302ZM28.7649 28.7191C20.7829 36.6825 11.6384 38.8337 6.8194 34.1943C6.48167 33.8574 6.15044 33.5269 5.81922 33.028C6.15044 33.1965 6.65053 33.1965 7.15062 33.1965C8.6444 33.1965 10.4759 32.866 12.3009 32.1986C16.2951 30.7083 20.6141 27.8897 24.4394 24.0732C30.2586 18.2676 33.5839 11.6325 33.5839 6.82466L33.7528 6.98664L34.2528 7.3171C38.903 12.1314 36.5779 21.0862 28.7649 28.7191Z" fill="#E3EDEE"/>
</svg>
