<svg width="24" height="24" viewBox="0 0 24 24" fill="none" xmlns="http://www.w3.org/2000/svg">
<path d="M9.36 14.4C9.1227 14.4 8.89067 14.3297 8.69333 14.1978C8.49599 14.066 8.34218 13.8785 8.25135 13.6592C8.16053 13.44 8.13677 13.1987 8.18307 12.9659C8.22936 12.7331 8.34366 12.5193 8.51148 12.3515C8.6793 12.1836 8.89313 12.0693 9.12585 12.0231C9.35865 11.9768 9.6 12.0005 9.81915 12.0914C10.0384 12.1821 10.226 12.336 10.3578 12.5333C10.4897 12.7307 10.56 12.9627 10.56 13.2C10.56 13.3577 10.529 13.5137 10.4687 13.6592C10.4084 13.8048 10.32 13.9371 10.2086 14.0486C10.0971 14.16 9.9648 14.2484 9.81915 14.3087C9.67365 14.369 9.51765 14.4 9.36 14.4ZM24 12C24 14.3735 23.2962 16.6935 21.9777 18.6669C20.6591 20.6403 18.7849 22.1783 16.5922 23.0865C14.3995 23.9948 11.9866 24.2325 9.65895 23.7695C7.33114 23.3064 5.19295 22.1636 3.51472 20.4854C1.83649 18.807 0.693599 16.6689 0.230579 14.3411C-0.232441 12.0134 0.00520429 9.60045 0.913454 7.4078C1.8217 5.21508 3.35977 3.34094 5.33316 2.02236C7.30654 0.703785 9.6267 0 12 0C15.1826 0 18.2349 1.26428 20.4854 3.51473C22.7357 5.76516 24 8.81741 24 12ZM17.595 10.005C17.1814 10.0293 16.7914 10.2057 16.5 10.5C15.2662 9.6846 13.8237 9.24195 12.345 9.225L13.185 5.43L15.87 6.03C15.868 6.18687 15.8972 6.34259 15.9558 6.48809C16.0146 6.6336 16.1015 6.76601 16.2117 6.87764C16.322 6.98927 16.4534 7.0779 16.5981 7.13838C16.7429 7.19888 16.8981 7.23002 17.055 7.23C17.3746 7.22606 17.6799 7.09631 17.9045 6.86888C18.1292 6.64145 18.255 6.33465 18.255 6.015C18.264 5.74073 18.1775 5.47185 18.0104 5.25426C17.8431 5.03666 17.6055 4.88384 17.3382 4.82187C17.0709 4.75991 16.7904 4.79265 16.5444 4.9145C16.2986 5.03634 16.1026 5.23976 15.99 5.49L12.99 4.83C12.9186 4.81631 12.8446 4.83041 12.7833 4.86945C12.7219 4.9085 12.6778 4.9695 12.66 5.04L11.73 9.225C10.2519 9.24615 8.81052 9.68835 7.575 10.5C7.41263 10.3323 7.21565 10.2021 6.99777 10.1184C6.7799 10.0347 6.54639 9.99945 6.31353 10.0154C6.08067 10.0311 5.85405 10.0974 5.64946 10.2098C5.44489 10.3221 5.26728 10.4778 5.12901 10.6658C4.99075 10.8539 4.89516 11.0699 4.84891 11.2986C4.80267 11.5274 4.80687 11.7635 4.86123 11.9904C4.91559 12.2174 5.01879 12.4298 5.16366 12.6128C5.30853 12.7958 5.49156 12.945 5.7 13.05C5.67706 13.2995 5.67706 13.5506 5.7 13.8C5.7 16.335 8.565 18.405 12.09 18.405C15.615 18.405 18.48 16.335 18.48 13.8C18.4806 13.5423 18.4503 13.2855 18.39 13.035C18.6932 12.8633 18.9323 12.5976 19.071 12.2781C19.2099 11.9586 19.2411 11.6027 19.1598 11.2638C19.0785 10.9251 18.8891 10.622 18.6204 10.4003C18.3516 10.1787 18.018 10.0505 17.67 10.035L17.595 10.005ZM14.265 15.63C13.5909 16.0535 12.811 16.278 12.015 16.278C11.2189 16.278 10.4391 16.0535 9.765 15.63C9.70965 15.5795 9.6375 15.5514 9.5625 15.5514C9.4875 15.5514 9.41535 15.5795 9.36 15.63C9.3309 15.6567 9.30765 15.6891 9.29175 15.7253C9.27585 15.7614 9.26775 15.8006 9.26775 15.84C9.26775 15.8795 9.27585 15.9186 9.29175 15.9548C9.30765 15.9909 9.3309 16.0233 9.36 16.05C10.1478 16.5846 11.078 16.8704 12.03 16.8704C12.9821 16.8704 13.9122 16.5846 14.7 16.05C14.7291 16.0233 14.7523 15.9909 14.7682 15.9548C14.7841 15.9186 14.7924 15.8795 14.7924 15.84C14.7924 15.8006 14.7841 15.7614 14.7682 15.7253C14.7523 15.6891 14.7291 15.6567 14.7 15.63C14.672 15.6005 14.6382 15.5771 14.6008 15.561C14.5635 15.545 14.5231 15.5366 14.4825 15.5366C14.4418 15.5366 14.4015 15.545 14.3642 15.561C14.3268 15.5771 14.2931 15.6005 14.265 15.63ZM14.64 12C14.4027 12 14.1707 12.0704 13.9733 12.2022C13.776 12.3341 13.6221 12.5216 13.5313 12.7409C13.4406 12.96 13.4167 13.2014 13.4631 13.4342C13.5093 13.667 13.6236 13.8807 13.7914 14.0486C13.9593 14.2164 14.173 14.3307 14.4058 14.3769C14.6386 14.4233 14.88 14.3996 15.0993 14.3087C15.3185 14.2179 15.506 14.064 15.6378 13.8668C15.7697 13.6694 15.84 13.4373 15.84 13.2C15.84 12.8817 15.7135 12.5765 15.4885 12.3515C15.2635 12.1265 14.9583 12 14.64 12Z" fill="#E3EDEE"/>
</svg>
