<svg width="24" height="24" viewBox="0 0 24 24" fill="none" xmlns="http://www.w3.org/2000/svg">
<path d="M7.36472 8.85792H8.69775C8.85098 8.21484 9.04978 7.62356 9.2858 7.10081C8.83486 7.3515 8.41603 7.66631 8.04117 8.04117C7.78781 8.29453 7.56202 8.56809 7.36472 8.85792Z" fill="#E3EDEE"/>
<path d="M7.36472 15.1421C7.56206 15.4319 7.78781 15.7055 8.04117 15.9588C8.41603 16.3337 8.83486 16.6485 9.2858 16.8992C9.04974 16.3764 8.85098 15.7852 8.69775 15.1421H7.36472Z" fill="#E3EDEE"/>
<path d="M16.6353 8.85792C16.4379 8.56809 16.2122 8.29453 15.9588 8.04117C15.584 7.66631 15.1651 7.3515 14.7142 7.10081C14.9503 7.62356 15.149 8.21484 15.3022 8.85792H16.6353Z" fill="#E3EDEE"/>
<path d="M13.0524 7.59577C12.6012 6.69333 12.1485 6.40139 12 6.40139C11.8515 6.40139 11.3988 6.69333 10.9476 7.59577C10.7607 7.96959 10.6003 8.39541 10.4691 8.85792H13.5309C13.3997 8.39541 13.2393 7.96955 13.0524 7.59577Z" fill="#E3EDEE"/>
<path d="M10.9476 16.4042C11.3988 17.3067 11.8515 17.5986 12 17.5986C12.1485 17.5986 12.6012 17.3067 13.0524 16.4042C13.2393 16.0304 13.3997 15.6046 13.5309 15.1421H10.4691C10.6003 15.6046 10.7607 16.0305 10.9476 16.4042Z" fill="#E3EDEE"/>
<path d="M8.34375 12C8.34375 11.5112 8.36794 11.0337 8.41369 10.5718H6.58458C6.46397 11.0323 6.40134 11.5113 6.40134 12C6.40134 12.4887 6.46392 12.9677 6.58458 13.4282H8.41369C8.36794 12.9663 8.34375 12.4888 8.34375 12Z" fill="#E3EDEE"/>
<path d="M15.6563 12C15.6563 12.4888 15.6321 12.9663 15.5863 13.4282H17.4154C17.536 12.9677 17.5987 12.4887 17.5987 12C17.5987 11.5113 17.5361 11.0323 17.4154 10.5718H15.5863C15.6321 11.0337 15.6563 11.5112 15.6563 12Z" fill="#E3EDEE"/>
<path d="M12 0C5.37258 0 0 5.37258 0 12C0 18.6274 5.37258 24 12 24C18.6274 24 24 18.6274 24 12C24 5.37258 18.6274 0 12 0ZM12 19.3125C7.96144 19.3125 4.6875 16.0386 4.6875 12C4.6875 7.96144 7.96144 4.6875 12 4.6875C16.0386 4.6875 19.3125 7.96144 19.3125 12C19.3125 16.0386 16.0386 19.3125 12 19.3125Z" fill="#E3EDEE"/>
<path d="M10.138 10.5718C10.0852 11.0359 10.0576 11.5152 10.0576 12C10.0576 12.4848 10.0852 12.9641 10.138 13.4282H13.8621C13.9148 12.9641 13.9424 12.4848 13.9424 12C13.9424 11.5152 13.9148 11.0359 13.8621 10.5718H10.138Z" fill="#E3EDEE"/>
<path d="M14.7142 16.8992C15.1651 16.6485 15.584 16.3337 15.9588 15.9588C16.2122 15.7055 16.4379 15.4319 16.6353 15.1421H15.3022C15.149 15.7852 14.9503 16.3764 14.7142 16.8992Z" fill="#E3EDEE"/>
</svg>
