<svg width="24" height="24" viewBox="0 0 24 24" fill="none" xmlns="http://www.w3.org/2000/svg">
<path d="M17.0365 0H6.97548C2.6053 0 0 2.604 0 6.972V17.016C0 21.396 2.6053 24 6.97548 24H17.0245C21.3947 24 24 21.396 24 17.028V6.972C24.012 2.604 21.4067 0 17.0365 0ZM12.006 16.656C9.4367 16.656 7.34766 14.568 7.34766 12C7.34766 9.432 9.4367 7.344 12.006 7.344C14.5753 7.344 16.6643 9.432 16.6643 12C16.6643 14.568 14.5753 16.656 12.006 16.656ZM19.1135 5.856C19.0535 6 18.9695 6.132 18.8614 6.252C18.7413 6.36 18.6093 6.444 18.4652 6.504C18.3211 6.564 18.1651 6.6 18.009 6.6C17.6848 6.6 17.3847 6.48 17.1565 6.252C17.0485 6.132 16.9645 6 16.9044 5.856C16.8444 5.712 16.8084 5.556 16.8084 5.4C16.8084 5.244 16.8444 5.088 16.9044 4.944C16.9645 4.788 17.0485 4.668 17.1565 4.548C17.4327 4.272 17.8529 4.14 18.2371 4.224C18.3211 4.236 18.3932 4.26 18.4652 4.296C18.5372 4.32 18.6093 4.356 18.6813 4.404C18.7413 4.44 18.8014 4.5 18.8614 4.548C18.9695 4.668 19.0535 4.788 19.1135 4.944C19.1736 5.088 19.2096 5.244 19.2096 5.4C19.2096 5.556 19.1736 5.712 19.1135 5.856Z" fill="#E3EDEE"/>
</svg>
