<svg width="24" height="16" viewBox="0 0 24 16" fill="none" xmlns="http://www.w3.org/2000/svg">
<path fill-rule="evenodd" clip-rule="evenodd" d="M9.58613 10.9556V4.54205C11.9768 5.6134 13.8283 6.64835 16.0181 7.76415C14.212 8.7181 11.9768 9.78847 9.58613 10.9556ZM22.9092 1.35232C22.4968 0.834884 21.794 0.432101 21.0457 0.298753C18.8463 -0.0990184 5.12518 -0.10015 2.92698 0.298753C2.32693 0.405884 1.7926 0.664836 1.3336 1.06717C-0.600435 2.77677 0.00559944 11.9448 0.471777 13.4299C0.667809 14.0727 0.921228 14.5363 1.24038 14.8406C1.65157 15.2429 2.21456 15.5199 2.86123 15.6442C4.67215 16.0009 14.0016 16.2004 21.0074 15.6977C21.6529 15.5906 22.2243 15.3047 22.6749 14.8852C24.4631 13.1825 24.3412 3.49958 22.9092 1.35232Z" fill="#E3EDEE"/>
</svg>
