<svg width="24" height="18" viewBox="0 0 24 18" fill="none" xmlns="http://www.w3.org/2000/svg">
<path d="M15.9925 12.2782C14.7839 12.2004 13.8337 11.2181 13.8337 10.0173C13.8337 9.97721 13.8345 9.93713 13.8369 9.89705V9.90255C13.8345 9.86483 13.8329 9.82082 13.8329 9.77603C13.8329 8.5776 14.7847 7.59843 15.9861 7.52691H15.9925C17.1995 7.59135 18.153 8.56817 18.153 9.76424C18.153 9.81297 18.1514 9.8609 18.1482 9.90884V9.90255C18.1506 9.94185 18.1522 9.98821 18.1522 10.0346C18.1522 11.2314 17.1995 12.2098 15.9981 12.2774H15.9917L15.9925 12.2782ZM8.02106 12.2782C6.81246 12.2004 5.86222 11.2181 5.86222 10.0173C5.86222 9.97721 5.86302 9.93713 5.86542 9.89705V9.90255C5.86302 9.86483 5.86142 9.82082 5.86142 9.77603C5.86142 8.5776 6.81326 7.59843 8.01466 7.52691H8.02106C9.22806 7.59135 10.1815 8.56817 10.1815 9.76424C10.1815 9.81297 10.1799 9.8609 10.1767 9.90884V9.90255C10.1791 9.94027 10.1807 9.98428 10.1807 10.0291C10.1807 11.2275 9.22886 12.2067 8.02746 12.2782H8.02106ZM20.3126 1.51356C18.9025 0.859725 17.2643 0.342632 15.5494 0.0432219L15.4302 0.0259332C15.4262 0.0251473 15.4214 0.0243616 15.4166 0.0243616C15.3886 0.0243616 15.3646 0.0392928 15.3518 0.0612967C15.1647 0.384283 14.9615 0.787426 14.7783 1.20079L14.7439 1.28802C13.9201 1.15835 12.9698 1.08448 12.002 1.08448C11.0342 1.08448 10.0839 1.15835 9.15687 1.30059L9.26006 1.28723C9.04409 0.792141 8.83773 0.389784 8.60977 0L8.64256 0.0605109C8.62896 0.0377211 8.60417 0.0235754 8.57617 0.0235754C8.57217 0.0235754 8.56737 0.0235757 8.56337 0.0243616C6.72928 0.341061 5.09115 0.857367 3.56021 1.56228L3.68099 1.51198C3.66739 1.51748 3.65619 1.52692 3.64899 1.5387C1.36617 4.71434 0 8.66562 0 12.9305C0 13.6432 0.0383936 14.3466 0.112781 15.0397L0.105582 14.9532C0.107982 14.976 0.11998 14.9949 0.136777 15.0083C1.84849 16.2664 3.83856 17.2802 5.9862 17.9458L6.12698 17.9835C6.13338 17.9859 6.14138 17.9866 6.14937 17.9866C6.17497 17.9866 6.19737 17.9749 6.21096 17.9568C6.63889 17.391 7.04603 16.7497 7.39877 16.077L7.43636 15.9984C7.44116 15.989 7.44436 15.9772 7.44436 15.9646C7.44436 15.9324 7.42356 15.9057 7.39477 15.8947C6.66529 15.6181 6.04779 15.3234 5.46069 14.9855L5.52228 15.0185C5.49908 15.0051 5.48389 14.9807 5.48389 14.9532C5.48389 14.9289 5.49588 14.9069 5.51428 14.8935C5.63986 14.8008 5.76624 14.7049 5.88622 14.6075C5.89902 14.5972 5.91581 14.591 5.93341 14.591C5.94461 14.591 5.95501 14.5933 5.96381 14.5972C7.72991 15.431 9.80237 15.9183 11.9908 15.9183C14.1792 15.9183 16.2533 15.431 18.1042 14.5611L18.0186 14.5972C18.0282 14.5925 18.0386 14.5902 18.0506 14.5902C18.0682 14.5902 18.085 14.5965 18.0978 14.6067C18.2178 14.7041 18.3433 14.8016 18.4705 14.8935C18.4889 14.9077 18.5009 14.9297 18.5009 14.954C18.5009 14.9815 18.4857 15.0051 18.4641 15.0185C17.9354 15.3289 17.3187 15.6228 16.6764 15.8656L16.5924 15.8939C16.5636 15.9049 16.5428 15.9324 16.5428 15.9639C16.5428 15.9764 16.546 15.9882 16.5516 15.9984C16.9524 16.7528 17.3587 17.3925 17.8082 18L17.7762 17.9552C17.7898 17.9741 17.813 17.9866 17.8378 17.9866C17.8458 17.9866 17.8538 17.9851 17.861 17.9835C20.1526 17.2825 22.1459 16.2688 23.912 14.9721L23.86 15.009C23.8776 14.9965 23.8888 14.9768 23.8912 14.9548C23.9608 14.3387 24 13.6236 24 12.8998C24 8.6444 22.6306 4.70334 20.3022 1.47819L20.3438 1.53949C20.3374 1.52692 20.3262 1.5167 20.3134 1.5112L20.3126 1.51356Z" fill="#E3EDEE"/>
</svg>
