<svg width="24" height="20" viewBox="0 0 24 20" fill="none" xmlns="http://www.w3.org/2000/svg">
<path fill-rule="evenodd" clip-rule="evenodd" d="M7.548 19.5997C16.6044 19.5997 21.558 12.2119 21.558 5.8061C21.558 5.5958 21.558 5.38708 21.5436 5.17915C22.5072 4.4939 23.3388 3.64309 24 2.66958C23.1024 3.06182 22.1484 3.31906 21.1728 3.43247C22.2 2.82639 22.9692 1.87419 23.3376 0.750633C22.3704 1.31536 21.3132 1.71393 20.2104 1.92778C18.3456 -0.0239828 15.2268 -0.118546 13.2432 1.71743C11.9652 2.90124 11.4216 4.66629 11.8188 6.34985C7.86 6.15374 4.1712 4.31306 1.6704 1.28501C0.3636 3.50022 1.032 6.33305 3.1956 7.75552C2.412 7.73306 1.6452 7.52535 0.96 7.14966V7.21118C0.9612 9.51856 2.6136 11.5053 4.9104 11.9625C4.1856 12.1575 3.4248 12.1858 2.688 12.0452C3.3324 14.0206 5.1816 15.3736 7.2876 15.4125C5.544 16.7618 3.39 17.4944 1.1724 17.492C0.7812 17.4909 0.39 17.4684 0 17.4223C2.2524 18.8448 4.872 19.5997 7.548 19.5961" fill="#E3EDEE"/>
</svg>
