<?xml version="1.0" encoding="UTF-8"?>
<svg id="_Слой_2" data-name="Слой 2" xmlns="http://www.w3.org/2000/svg" viewBox="0 0 76 76">
  <defs>
    <style>
      .cls-1 {
        fill: #fdfefe;
      }

      .cls-2 {
        fill: #1aefbf;
      }

      .cls-3 {
        fill: #1a1e27;
      }
    </style>
  </defs>
  <g id="_Слой_1-2" data-name="Слой 1">
    <g>
      <path class="cls-2" d="m33.81,0h8.44c.29.07.58.01.87.03,1.72,1.56,4.02.87,6,1.56,4.31,1.49,8.33,3.48,12.01,6.14,6.71,4.85,10.95,11.43,13.32,19.27.59,1.94.94,3.94,1.3,5.93.04.2.06.42.24.56v7.56c-.29,3.24-.94,6.44-2,9.49-1.56,4.5-3.83,8.64-7.05,12.22-1.87,2.08-3.75,4.13-5.99,5.81-4.06,3.04-8.52,5.21-13.5,6.3-1.45.32-2.95.38-4.27.89.11.06.45-.23.51.21h-1.69s-.08-.04-.12,0h-.12c-.23-.05-.46-.05-.69,0h-7.12s-.08-.04-.12,0h-.19c-.12-.11-.28-.03-.4-.09-1.04-.22-1.98-.75-3.09-.79-3-.11-5.72-1.26-8.39-2.48-5-2.29-9.19-5.69-12.72-9.87-3.89-4.59-6.69-9.77-7.96-15.7-.11-.52-.21-1.05-.21-1.57-.01-1.05-.39-1.97-.8-2.9-.02-.2.04-.4-.03-.59v-8c.05-.1.05-.21,0-.31v-.19s.02-.03.02-.04c0-.01-.01-.02-.02-.02v-.19c.05-.1.05-.21,0-.31v-.19c.07-.05-.01-.16.08-.2.03,0,.06.02.08.04.07.07.05.16.08.24.09-.07.1-.18.15-.26.45-.73.32-1.57.44-2.36.21-1.29.6-2.53.97-3.77.69-2.3,1.65-4.49,2.84-6.58.4-.7.73-1.45,1.2-2.12.6-.86,1.21-1.71,1.76-2.6.49-.79,1.18-1.39,1.76-2.09.86-1.05,1.82-2.03,2.84-2.94.7-.63,1.42-1.26,2.15-1.85.77-.61,1.54-1.24,2.41-1.71.48-.26.89-.62,1.35-.9.67-.41,1.37-.79,2.06-1.17,1.4-.75,2.84-1.44,4.35-1.97,1.28-.45,2.54-.99,3.89-1.21.52-.08,1.02-.3,1.55-.36.57-.06,1.13-.19,1.7-.18.37,0,.4-.03.48-.39.03-.13.06-.27.17-.36h.37s.04.02.06,0h.12c.31.05.62.05.94,0Z"/>
      <path class="cls-1" d="m32.31,0c.12,1.32-.99.85-1.53.93-2.65.38-5.16,1.2-7.6,2.25-5.59,2.4-10.37,5.9-14.28,10.6-3.66,4.4-6.15,9.37-7.62,14.88-.23.85-.35,1.73-.41,2.61-.03.55-.28,1.01-.42,1.5-.02.08-.19.11-.3.17-.02-.12-.04-.24-.05-.36-.04.03-.07.02-.1-.02v-.25s.07-.03.11-.03c-.04,0-.08,0-.11-.03v-1s.02-.03.02-.04c0-.01-.01-.02-.02-.02C0,20.89,0,10.6,0,.3,0,.05.05,0,.3,0c10.3,0,20.59,0,30.89,0,.02.02.04.02.06,0h.12s.04.02.06,0h.87Z"/>
      <path class="cls-1" d="m75.99,33.5c-.68-.36-.4-1.08-.52-1.6-.81-3.61-1.61-7.21-3.3-10.56-2.96-5.88-6.88-10.87-12.48-14.46-4-2.56-8.17-4.68-12.85-5.64-.93-.19-1.88-.27-2.83-.34-.58-.04-.63-.46-.78-.84.04-.04.1,0,.14-.05h.12c.06.05.12.05.19,0h.31s.08.04.12,0C54.65,0,65.17,0,75.7,0c.25,0,.3.05.3.3,0,11.07,0,22.13,0,33.2Z"/>
      <path class="cls-1" d="m.08,42.6c.3.18.38.49.45.81.03.13.11.25.16.38.07.18.15.36.17.55.08.71.1,1.43.22,2.14.14.78.31,1.57.56,2.32.47,1.47.94,2.95,1.51,4.39.64,1.62,1.5,3.15,2.45,4.63.84,1.31,1.74,2.59,2.68,3.82.65.85,1.37,1.65,2.1,2.43.65.7,1.34,1.37,2.04,2.03.76.71,1.54,1.39,2.33,2.05,1.57,1.33,3.35,2.35,5.12,3.38,1.37.8,2.81,1.45,4.31,1.96.66.23,1.3.5,1.96.73.4.14.82.24,1.23.34.54.12,1.09.24,1.64.31.71.1,1.42.17,2.14.25.21.02.41.04.61.08.08.01.16.05.21.11.23.24.49.36.82.36.2,0,.4,0,.52.21-.3.1-.61.02-.92.05-.13.01-.27-.03-.39.06-10.57,0-21.14,0-31.71,0-.23,0-.29-.05-.29-.29,0-10.45,0-20.89,0-31.34.02-.01.02-.03.02-.04,0-.01-.01-.02-.02-.02v-.44s.04-.08,0-.12v-.62c.09-.17-.03-.36.07-.52Z"/>
      <path class="cls-1" d="m43.69,75.99c-.15-.03-.29-.08-.44-.1-.23-.04-.47-.07-.7-.1.25-.07.49-.15.74-.2,4.39-.88,8.73-1.83,12.74-3.99,5.08-2.73,9.19-6.54,12.6-11.09,2.66-3.56,4.64-7.5,5.77-11.86.63-2.4,1.08-4.82,1.45-7.26.02-.12.09-.23.14-.34,0,11.56,0,23.11,0,34.67,0,.23-.04.27-.27.27-10.68,0-21.36,0-32.04,0Z"/>
      <path class="cls-3" d="m32,75.99c.44-.04.87-.07,1.31-.11.11.04.21.07.31.11-.54,0-1.08,0-1.62,0Z"/>
      <path class="cls-3" d="m43.37,0s-.09.04-.14.05c-.33-.02-.66-.04-.99-.05.37,0,.75,0,1.12,0Z"/>
      <path class="cls-3" d="m.08,42.6c-.02.17-.05.35-.07.52,0-.37,0-.75,0-1.12.02.2.05.4.07.6Z"/>
      <path class="cls-3" d="m0,32.56s.06.01.1.02c-.03.06-.06.11-.1.17,0-.06,0-.12,0-.19Z"/>
      <path class="cls-2" d="m0,32.25s.06,0,.08-.01c0,.04,0,.07,0,.11-.03-.01-.06-.02-.08-.04,0-.02,0-.04,0-.06Z"/>
      <path class="cls-3" d="m0,43.75s.04.05.06.08c-.02.02-.04.03-.06.05,0-.04,0-.08,0-.12Z"/>
      <path class="cls-3" d="m41.87,75.99s.05-.04.08-.06c.02.02.03.04.05.06h-.12Z"/>
      <path class="cls-3" d="m0,33.44s.04.03.06.04c-.02,0-.04.01-.06.02,0-.02,0-.04,0-.06Z"/>
      <path class="cls-3" d="m0,31.19s.04.03.06.04c-.02,0-.04.01-.06.02,0-.02,0-.04,0-.06Z"/>
      <path class="cls-3" d="m32.75,0s-.02.04-.03.06c-.01-.02-.02-.04-.03-.06.02,0,.04,0,.06,0Z"/>
      <path class="cls-3" d="m0,44.31s.04.02.05.03c-.02.01-.04.02-.05.03,0-.02,0-.04,0-.06Z"/>
      <path class="cls-3" d="m31.44,0s-.03.04-.04.06c0-.02-.01-.04-.02-.06.02,0,.04,0,.06,0Z"/>
      <path class="cls-3" d="m31.25,0s-.01.04-.02.06c-.02-.02-.03-.04-.05-.06.02,0,.04,0,.06,0Z"/>
      <path class="cls-3" d="m5.99,37.8c.03-.62.04-1.25.09-1.87.04-.48.11-.96.18-1.43.08-.55.15-1.1.25-1.65.12-.65.27-1.29.39-1.94.31-1.62.89-3.16,1.49-4.69.31-.8.69-1.57,1.08-2.33.4-.78.81-1.56,1.28-2.3.57-.91,1.18-1.8,1.8-2.68.93-1.32,2.03-2.5,3.18-3.64,1.04-1.03,2.15-1.97,3.35-2.8,1.17-.81,2.34-1.62,3.57-2.35.89-.53,1.84-.95,2.79-1.37.96-.42,1.93-.84,2.93-1.16,1.15-.36,2.34-.6,3.51-.9,1.38-.35,2.79-.44,4.2-.56.75-.06,1.5-.14,2.24-.12,1.09.03,2.19.12,3.28.24.87.1,1.74.26,2.61.44.81.17,1.63.38,2.42.63,1.14.37,2.28.74,3.39,1.2.98.41,1.95.89,2.87,1.44,1.01.6,1.98,1.29,2.93,2,.61.46,1.17,1,1.69,1.56.66.71,1.29,1.46,1.87,2.23.45.59.82,1.25,1.23,1.88,1.31,1.99,2.08,4.21,2.64,6.5.21.87.27,1.79.41,2.68.19,1.21.22,2.44.18,3.66-.03.78-.14,1.56-.25,2.34-.1.74-.19,1.49-.37,2.22-.25.97-.58,1.93-.91,2.88-.55,1.58-1.47,2.95-2.48,4.26-1.27,1.65-2.79,3.03-4.46,4.24-1.05.76-2.18,1.41-3.34,1.99-.44.22-.87.47-1.32.67-.32.15-.67.27-1,.4-.04.01-.09,0-.14,0,.01-.04.02-.08.05-.11.03-.04.07-.08.11-.11.68-.47,1.1-1.18,1.63-1.79.73-.83,1.13-1.86,1.6-2.84.48-1,.84-2.06,1.04-3.16.12-.64.18-1.29.3-1.93.18-.96.21-1.92.12-2.89-.09-.95-.23-1.9-.37-2.85-.08-.51-.15-1.03-.3-1.51-.38-1.2-.88-2.35-1.52-3.44-.66-1.12-1.43-2.15-2.27-3.13-.5-.58-1.09-1.08-1.7-1.56-1.59-1.26-3.4-2.14-5.31-2.78-1.02-.34-2.08-.55-3.12-.81-.58-.15-1.15-.3-1.74-.41-.62-.12-1.24-.21-1.87-.27-.91-.09-1.82-.17-2.73-.18-.93,0-1.88.02-2.8.13-1.14.14-2.26.37-3.39.6-1.12.23-2.24.48-3.34.77-1.3.35-2.54.84-3.76,1.41-1.09.51-2.11,1.11-3.14,1.72-1.26.75-2.37,1.69-3.48,2.63-1.3,1.11-2.36,2.43-3.28,3.86-.59.92-1.2,1.83-1.78,2.76-.45.72-.75,1.52-1.02,2.33-.18.55-.32,1.12-.51,1.66-.22.64-.37,1.29-.44,1.96-.03.32-.07.64-.11.96-.01.09-.08.17-.13.25-.06-.1-.15-.19-.16-.3-.04-.52-.06-1.04-.08-1.56-.01-.36,0-.73,0-1.09,0,0-.02,0-.03,0Z"/>
      <path class="cls-3" d="m70,39.26c-.1.8-.25,1.76-.35,2.71-.1.95-.23,1.9-.47,2.83-.17.67-.36,1.33-.54,2-.16.62-.25,1.27-.47,1.87-.31.84-.7,1.65-1.09,2.46-.38.8-.77,1.6-1.2,2.38-.3.54-.63,1.06-.99,1.57-.64.91-1.27,1.82-1.96,2.68-.7.87-1.43,1.71-2.2,2.51-.75.77-1.57,1.48-2.38,2.2-.37.32-.78.58-1.17.88-.21.16-.38.37-.6.51-.5.35-1.02.67-1.53,1-.36.23-.73.47-1.1.69-.25.15-.51.29-.77.42-.67.34-1.33.69-2.01,1-.72.32-1.47.6-2.2.89-.31.12-.62.26-.94.37-.46.16-.93.29-1.39.43-.24.07-.5.11-.73.2-.83.32-1.72.4-2.59.54-.75.12-1.49.23-2.25.31-.62.07-1.24.05-1.86.13-1.44.18-2.86,0-4.29-.11-1.22-.1-2.42-.33-3.63-.55-2.23-.41-4.32-1.19-6.36-2.13-1.43-.66-2.8-1.43-4.05-2.38-.65-.49-1.26-1.04-1.86-1.61-.62-.59-1.23-1.19-1.76-1.84-.57-.7-1.07-1.47-1.58-2.21-.25-.36-.49-.72-.68-1.1-.79-1.54-1.5-3.12-1.95-4.8-.25-.95-.46-1.91-.61-2.88-.18-1.14-.31-2.29-.41-3.44-.04-.5.02-1.02.06-1.53.06-.66.13-1.32.23-1.98.08-.55.22-1.09.33-1.64.24-1.26.69-2.45,1.13-3.65.43-1.15,1.09-2.14,1.74-3.16.81-1.26,1.85-2.29,2.89-3.35.86-.88,1.85-1.61,2.84-2.32.66-.48,1.39-.87,2.08-1.31.25-.15.5-.3.75-.45.05-.03.1-.05.15-.07,0,.06,0,.13-.03.18-.19.28-.39.56-.59.84-.06.08-.12.16-.19.24-.61.78-.8,1.77-1.29,2.62-.2.34-.27.76-.38,1.15-.25.88-.51,1.76-.73,2.65-.1.4-.12.82-.14,1.24-.05.98-.12,1.97-.12,2.95,0,.49.14.99.24,1.48.16.77.3,1.55.52,2.3.34,1.17.83,2.29,1.43,3.35.53.93,1.16,1.8,1.75,2.69.62.94,1.46,1.68,2.27,2.43.46.43,1.03.75,1.57,1.1.53.35,1.06.71,1.63.98,1.11.53,2.24,1.01,3.46,1.26.4.08.79.19,1.18.31.93.3,1.89.45,2.85.62,1.56.28,3.13.41,4.71.49,1.07.05,2.13-.02,3.19-.18.58-.09,1.17-.1,1.75-.21.93-.17,1.86-.37,2.78-.59,2.08-.49,4.07-1.23,6.04-2.03.64-.26,1.21-.68,1.83-.99.9-.45,1.65-1.1,2.44-1.71.5-.39.98-.8,1.44-1.24.91-.88,1.84-1.74,2.7-2.68.64-.7,1.2-1.49,1.76-2.26.42-.57.87-1.15,1.2-1.78.59-1.13,1.13-2.3,1.44-3.55.09-.38.09-.78.12-1.18.05-.58.08-1.15.13-1.73,0-.04.04-.09.06-.13.04.04.1.06.12.11.33.54.53,1.11.5,1.76-.02.4.07.8.12,1.37Z"/>
      <path class="cls-3" d="m37.96,46.17c-1.62-.05-2.94-.38-4.18-1.06-1.7-.93-2.85-2.35-3.65-4.08-.23-.49-.36-1.04-.47-1.58-.12-.56-.22-1.13-.24-1.7-.02-.43.07-.88.16-1.31.2-.93.48-1.83.96-2.65.67-1.15,1.59-2.09,2.68-2.84,1.02-.7,2.12-1.25,3.36-1.41.54-.07,1.09-.06,1.64-.05.48.02.98.05,1.44.16,1.04.26,2,.75,2.88,1.36,1.05.72,1.85,1.68,2.48,2.78.21.36.44.71.57,1.09.18.5.3,1.03.39,1.56.09.5.13,1.01.13,1.51,0,1.59-.45,3.06-1.35,4.36-1.29,1.87-3.03,3.12-5.27,3.62-.57.13-1.17.16-1.54.21Z"/>
    </g>
  </g>
</svg>